<svg width="66" height="65" viewBox="0 0 66 65" fill="none" xmlns="http://www.w3.org/2000/svg">
<path d="M18.4912 32.2436C19.1637 30.1737 22.0921 30.1737 22.7647 32.2436L24.9155 38.8632C25.2163 39.7889 26.0789 40.4156 27.0523 40.4156H34.0125C36.1889 40.4156 37.0939 43.2007 35.3331 44.48L29.7021 48.5711C28.9147 49.1432 28.5852 50.1573 28.886 51.083L31.0368 57.7025C31.7094 59.7725 29.3402 61.4937 27.5794 60.2144L21.9485 56.1233C21.1611 55.5512 20.0948 55.5512 19.3073 56.1233L13.6764 60.2144C11.9156 61.4937 9.5465 59.7725 10.2191 57.7025L12.3699 51.083C12.6707 50.1573 12.3412 49.1432 11.5537 48.5711L5.92279 44.48C4.162 43.2007 5.06693 40.4156 7.24339 40.4156H14.2036C15.1769 40.4156 16.0396 39.7888 16.3403 38.8631L18.4912 32.2436Z" fill="#CF0E7E"/>
<path d="M4.35658 2.47786C4.1391 0.312293 6.81982 -0.866403 8.26865 0.757742L9.64207 2.29735C10.29 3.02369 11.332 3.25021 12.223 2.85844L14.1116 2.028C16.104 1.15197 18.0534 3.33725 16.9564 5.21705L15.9166 6.99902C15.426 7.8397 15.5326 8.90064 16.1805 9.62698L17.5539 11.1666C19.0028 12.7907 17.5268 15.32 15.4001 14.8576L13.384 14.4194C12.4329 14.2126 11.4568 14.6418 10.9662 15.4824L9.92636 17.2644C8.82942 19.1442 5.96785 18.5221 5.75037 16.3565L5.54421 14.3037C5.44695 13.3352 4.73714 12.5395 3.78602 12.3328L1.76994 11.8945C-0.356834 11.4321 -0.649453 8.51836 1.34291 7.64233L3.23158 6.81189C4.12259 6.42012 4.66 5.49917 4.56274 4.5307L4.35658 2.47786Z" fill="#A60C65"/>
<path d="M35.9395 20.9666C34.4883 19.3446 35.9605 16.8132 38.088 17.2724L40.1047 17.7078C41.0561 17.9132 42.0316 17.4825 42.5209 16.6412L43.5582 14.8577C44.6524 12.9763 47.5148 13.5942 47.7355 15.7594L47.9446 17.812C48.0433 18.7803 48.7543 19.575 49.7057 19.7803L51.7224 20.2157C53.8499 20.6749 54.1467 23.5883 52.1556 24.4672L50.2682 25.3004C49.3778 25.6935 48.8417 26.6152 48.9404 27.5835L49.1495 29.6361C49.3702 31.8013 46.6912 32.9839 45.24 31.3619L43.8643 29.8243C43.2153 29.0989 42.173 28.8739 41.2826 29.267L39.3951 30.1002C37.404 30.9791 35.4515 28.7967 36.5457 26.9153L37.5829 25.1318C38.0722 24.2904 37.9641 23.2296 37.3152 22.5042L35.9395 20.9666Z" fill="#CF0E7E"/>
<path d="M54.5149 48.1661C55.1632 46.0884 58.0914 46.0541 58.7881 48.116L59.4486 50.0706C59.7602 50.9928 60.6301 51.6094 61.6034 51.598L63.6664 51.5738C65.8427 51.5484 66.7802 54.3227 65.0345 55.6225L63.3797 56.8546C62.599 57.4359 62.2813 58.4538 62.5929 59.3759L63.2534 61.3305C63.9502 63.3924 61.6013 65.1413 59.8257 63.8827L58.1425 62.6896C57.3484 62.1268 56.2822 62.1393 55.5015 62.7205L53.8466 63.9527C52.1009 65.2525 49.7118 63.5591 50.3601 61.4814L50.9747 59.5119C51.2646 58.5827 50.9232 57.5726 50.1292 57.0097L48.4459 55.8166C46.6703 54.558 47.5426 51.7625 49.7189 51.7371L51.7819 51.7129C52.7552 51.7015 53.6104 51.0647 53.9004 50.1356L54.5149 48.1661Z" fill="#94058E"/>
</svg>
